{"title":"U2 I+E Tour Live in Paris 2015-12-07 1080i HDTV","uid":12939798,"size":30906889800,"categoryP":"video","categoryS":"music_videos","magnet":"?xt=urn:btih:8f87eb47ded9ba447f0098fab990b04b66c70029&amp;dn=U2+I%2BE+Tour+Live+in+Paris+2015-12-07+1080i+HDTV&amp;tr=udp%3A%2F%2Ftracker.leechers-paradise.org%3A6969&amp;tr=udp%3A%2F%2Fzer0day.ch%3A1337&amp;tr=udp%3A%2F%2Fopen.demonii.com%3A1337&amp;tr=udp%3A%2F%2Ftracker.coppersurfer.tk%3A6969&amp;tr=udp%3A%2F%2Fexodus.desync.com%3A6969","seeders":1,"leechers":0,"uploader":null,"files":1,"time":1449619131,"description":"General\r\nID : 1 (0x1)\r\nComplete name : U2.Inocence.Experience.Tour.Live.07.12.2015.Paris.1080p.HDTV.h264-DRACULA.ts\r\nFormat : MPEG-TS\r\nFile size : 28.8 GiB\r\nDuration : 2h 27mn\r\nOverall bit rate mode : Variable\r\nOverall bit rate : 27.9 Mbps\r\n\r\nVideo\r\nID : 512 (0x200)\r\nMenu ID : 1 (0x1)\r\nFormat : AVC\r\nFormat/Info : Advanced Video Codec\r\nFormat profile : High 4:2:  \r\nFormat settings, CABAC : Yes\r\nFormat settings, ReFrames : 3 frames\r\nCodec ID : 27\r\nDuration : 2h 27mn\r\nBit rate mode : Constant\r\nBit rate : 24.5 Mbps\r\nWidth : 1 920 pixels\r\nHeight : 1 080 pixels\r\nDisplay aspect ratio : 16:9\r\nFrame rate : 29.970 fps\r\nColor space : YUV\r\nChroma subsampling : 4:2:2\r\nBit depth : 8 bits\r\nScan type : MBAFF\r\nScan order : Top Field First\r\nBits/(Pixel*Frame) : 0.394\r\nStream size : 24.6 GiB (85%)\r\nColor primaries : BT.709\r\nTransfer characteristics : BT.709\r\nMatrix coefficients : BT.709\r\n\r\nAudio #1\r\nID : 4112 (0x1010)\r\nMenu ID : 1 (0x1)\r\nFormat : MPEG Audio\r\nFormat version : Version 1\r\nFormat profile : Layer 2\r\nMode : Dual mono\r\nCodec ID : 3\r\nDuration : 2h 27mn\r\nBit rate mode : Constant\r\nBit rate : 384 Kbps\r\nChannel(s) : 2 channels\r\nSampling rate : 48.0 KHz\r\nCompression mode : Lossy\r\nDelay relative to video : 12ms\r\nStream size : 406 MiB (1%)\r\nLanguage : English\r\nLanguage, more info : Clean effects\r\n\r\nAudio #2\r\nID : 4128 (0x1020)\r\nMenu ID : 1 (0x1)\r\nFormat : Dolby E\r\nMode : 20\r\nFormat settings, Endianness : Little\r\nMuxing mode : AES3\r\nCodec ID : 6\r\nDuration : 2h 27mn\r\nBit rate mode : Constant\r\nBit rate : 2 304 Kbps\r\nBit depth : 20 bits\r\nStream size : 2.38 GiB (8%)\r\nLanguage : English\r\nLanguage, more info : Clean effects","torrent":{"xt":"urn:btih:8f87eb47ded9ba447f0098fab990b04b66c70029","amp;dn":"U2+I%2BE+Tour+Live+in+Paris+2015-12-07+1080i+HDTV","amp;tr":["udp%3A%2F%2Ftracker.leechers-paradise.org%3A6969","udp%3A%2F%2Fzer0day.ch%3A1337","udp%3A%2F%2Fopen.demonii.com%3A1337","udp%3A%2F%2Ftracker.coppersurfer.tk%3A6969","udp%3A%2F%2Fexodus.desync.com%3A6969"],"infoHash":"8f87eb47ded9ba447f0098fab990b04b66c70029","infoHashBuffer":{"type":"Buffer","data":[143,135,235,71,222,217,186,68,127,0,152,250,185,144,176,75,102,199,0,41]},"announce":[],"urlList":[]}}